<?xml version="1.0" encoding="UTF-8" standalone="no"?>
<!-- Created with Inkscape (http://www.inkscape.org/) -->

<svg
   xmlns:dc="http://purl.org/dc/elements/1.1/"
   xmlns:cc="http://creativecommons.org/ns#"
   xmlns:rdf="http://www.w3.org/1999/02/22-rdf-syntax-ns#"
   xmlns:svg="http://www.w3.org/2000/svg"
   xmlns="http://www.w3.org/2000/svg"
   xmlns:sodipodi="http://sodipodi.sourceforge.net/DTD/sodipodi-0.dtd"
   xmlns:inkscape="http://www.inkscape.org/namespaces/inkscape"
   width="150"
   height="168"
   id="svg5441"
   version="1.1"
   inkscape:version="0.48.3.1 r9886"
   sodipodi:docname="logo_hamali_kolev.svg">
  <defs
     id="defs5443" />
  <sodipodi:namedview
     id="base"
     pagecolor="#ffffff"
     bordercolor="#666666"
     borderopacity="1.0"
     inkscape:pageopacity="0.0"
     inkscape:pageshadow="2"
     inkscape:zoom="3.959798"
     inkscape:cx="125.2757"
     inkscape:cy="27.190582"
     inkscape:document-units="px"
     inkscape:current-layer="g5297"
     showgrid="false"
     showguides="true"
     inkscape:guide-bbox="true"
     inkscape:window-width="1920"
     inkscape:window-height="1018"
     inkscape:window-x="1358"
     inkscape:window-y="-8"
     inkscape:window-maximized="1" />
  <metadata
     id="metadata5446">
    <rdf:RDF>
      <cc:Work
         rdf:about="">
        <dc:format>image/svg+xml</dc:format>
        <dc:type
           rdf:resource="http://purl.org/dc/dcmitype/StillImage" />
        <dc:title></dc:title>
      </cc:Work>
    </rdf:RDF>
  </metadata>
  <g
     inkscape:label="Layer 1"
     inkscape:groupmode="layer"
     id="layer1"
     transform="translate(0,-884.36218)">
    <g
       id="g5229"
       transform="matrix(0.79938041,0,0,0.79938041,1573.5523,1102.0667)"
       inkscape:export-filename="F:\work_05_13\Niki_Kolev\h5bp-html5-boilerplate-v4.2.0-0-g0adda79\h5bp-html5-boilerplate-defe483\img\logo_hamali_kolev.png"
       inkscape:export-xdpi="90.014015"
       inkscape:export-ydpi="90.014015">
      <path
         inkscape:connector-curvature="0"
         style="fill:none;stroke:#7f7f7f;stroke-width:1.69971192;stroke-linecap:butt;stroke-linejoin:miter;stroke-miterlimit:4;stroke-opacity:1;stroke-dasharray:none"
         d="m -1908.0092,-192.60432 86.8969,0"
         id="path5231"
         inkscape:export-filename="/home/joro/linux/joro/hamali/images/varianti_site_stranitsiv2.jpg"
         inkscape:export-xdpi="89.994392"
         inkscape:export-ydpi="89.994392" />
      <path
         inkscape:connector-curvature="0"
         id="path5233"
         d="m -1934.4079,-208.71723 81.169,0"
         style="fill:none;stroke:#7f7f7f;stroke-width:1.69971192;stroke-linecap:butt;stroke-linejoin:miter;stroke-miterlimit:4;stroke-opacity:1;stroke-dasharray:none"
         inkscape:export-filename="/home/joro/linux/joro/hamali/images/varianti_site_stranitsiv2.jpg"
         inkscape:export-xdpi="89.994392"
         inkscape:export-ydpi="89.994392" />
      <path
         inkscape:connector-curvature="0"
         style="fill:none;stroke:#7f7f7f;stroke-width:1.69971192;stroke-linecap:butt;stroke-linejoin:miter;stroke-miterlimit:4;stroke-opacity:1;stroke-dasharray:none"
         d="m -1934.0395,-233.81614 112.098,0"
         id="path5235"
         inkscape:export-filename="/home/joro/linux/joro/hamali/images/varianti_site_stranitsiv2.jpg"
         inkscape:export-xdpi="89.994392"
         inkscape:export-ydpi="89.994392" />
      <path
         inkscape:connector-curvature="0"
         id="path5237"
         d="m -1921.013,-152.32209 86.9603,0"
         style="fill:none;stroke:#7f7f7f;stroke-width:1.69971192;stroke-linecap:butt;stroke-linejoin:miter;stroke-miterlimit:4;stroke-opacity:1;stroke-dasharray:none"
         inkscape:export-filename="/home/joro/linux/joro/hamali/images/varianti_site_stranitsiv2.jpg"
         inkscape:export-xdpi="89.994392"
         inkscape:export-ydpi="89.994392" />
      <path
         inkscape:connector-curvature="0"
         style="fill:none;stroke:#7f7f7f;stroke-width:1.69971192;stroke-linecap:butt;stroke-linejoin:miter;stroke-miterlimit:4;stroke-opacity:1;stroke-dasharray:none"
         d="m -1841.3544,-155.24964 0,-34.22611"
         id="path5239"
         inkscape:export-filename="/home/joro/linux/joro/hamali/images/varianti_site_stranitsiv2.jpg"
         inkscape:export-xdpi="89.994392"
         inkscape:export-ydpi="89.994392" />
      <path
         inkscape:connector-curvature="0"
         sodipodi:nodetypes="ccsscccscccc"
         id="path5241"
         d="m -1820.9174,-253.87797 0,69.10255 c 0,8.59892 -1.6125,15.77243 -4.8373,21.52054 -3.225,5.74819 -7.5013,10.74866 -12.8291,15.00129 -5.328,4.25272 -11.4272,8.1082 -18.2972,11.56642 -6.8706,3.41153 -13.9276,7.10343 -21.1717,11.07575 -6.3098,-3.22456 -12.853,-6.6127 -19.6297,-10.16445 -6.7766,-3.59839 -12.9459,-7.68755 -18.5077,-12.26742 -5.5613,-4.5798 -10.1418,-9.83723 -13.7406,-15.77238 -3.5984,-5.98175 -5.398,-12.96836 -5.398,-20.95975 l 0,-69.10255 114.4113,0"
         style="font-size:74.33059692px;font-style:normal;font-variant:normal;font-weight:normal;font-stretch:normal;text-align:start;line-height:125%;writing-mode:lr-tb;text-anchor:start;fill:none;stroke:#009;stroke-width:1.69971192;stroke-linecap:butt;stroke-linejoin:miter;stroke-miterlimit:4;stroke-opacity:1;stroke-dasharray:none;font-family:Medieval Dingbats"
         inkscape:export-filename="/home/joro/linux/joro/hamali/images/varianti_site_stranitsiv2.jpg"
         inkscape:export-xdpi="89.994392"
         inkscape:export-ydpi="89.994392" />
      <g
         transform="matrix(1.941335,0,0,1.937682,638.5868,781.0259)"
         id="g5243"
         style="stroke-width:0.83418733;stroke-miterlimit:4;stroke-dasharray:none"
         inkscape:export-filename="/home/joro/linux/joro/hamali/images/varianti_site_stranitsiv2.jpg"
         inkscape:export-xdpi="89.994392"
         inkscape:export-ydpi="89.994392">
        <path
           inkscape:connector-curvature="0"
           style="fill:#009;fill-rule:evenodd;stroke:none"
           d="m -1319.2437,-497.29068 0.6654,2.47876 c 2.6304,1.43536 5.2563,-0.034 7.498,-1.57385 0.4592,-0.19096 2.3882,-1.72445 2.3882,-1.72445 0,0 0.4031,0.44946 0.7002,0.43596 0.297,-0.0135 1.192,0.0309 1.192,0.0309 l 3.4086,2.01394 c 0,0 -1.7362,2.03503 -1.8963,2.25493 -0.1601,0.2199 -0.6058,1.64348 -0.4939,2.23375 0.1119,0.59027 2.1747,3.87396 2.3097,4.03793 0.135,0.16397 2.2685,-0.61336 2.2685,-0.61336 0,0 0.436,-0.70021 0,-0.89312 -0.4341,-0.19291 -1.4641,-0.40127 -1.5181,-0.65396 -0.054,-0.2527 -0.186,-2.22078 -0.186,-2.22078 0,0 1.3638,-0.86993 1.5355,-0.8352 0.097,0.0196 0.8418,1.72529 1.1067,2.31407 0.2051,0.45614 0.8775,1.11416 0.8994,1.18742 0.05,0.16782 2.0629,-0.0538 2.0629,-0.0538 0,0 -0.4193,-3.61351 -0.3113,-4.04367 0.108,-0.43016 0.3743,-1.12266 0.6713,-1.13615 0.2971,-0.0135 3.8406,1.22886 3.8406,1.22886 0,0 2.0717,0.67133 3.9389,0.58651 1.8673,-0.0848 2.8279,-0.46867 3.9911,-1.07434 1.1632,-0.60567 2.5116,-1.81511 2.5116,-1.81511 l 0.7273,-0.84102 c 0,0 0.1542,2.45946 0.083,2.76038 -0.2155,1.59914 -2.3524,4.24475 0.3107,4.19161 0.4225,-0.0617 1.9503,-0.13112 1.9503,-0.13112 0,0 -0.018,-2.41887 0.538,-3.29461 0.5555,-0.87575 1.2288,-1.96947 1.2288,-1.96947 0,0 1.6203,0.0965 2.986,2.07566 0.7679,1.11287 2.457,3.53735 2.457,3.53735 0,0 1.169,0.4572 1.5085,0.44178 0.3395,-0.0154 0.8854,-0.1678 0.9607,-0.38385 0.075,-0.21604 0.039,-1.02236 0.11,-1.32328 0.071,-0.30092 0.073,-1.19403 0.073,-1.19403 l -2.8852,-3.60294 -0.072,-4.16629 0.7068,3.60219 0.3318,-1.56355 c 0,0 -0.7021,-4.22062 -0.7195,-4.60257 -0.1308,-2.32334 -1.7209,-3.85522 -3.2656,-5.42245 l -1.545,-1.24809 c 0,0 -0.9568,-0.46684 -1.1266,-0.45912 -0.1697,0.008 -2.3494,-0.23347 -2.6909,-0.26048 -0.3414,-0.027 -2.2839,-0.6617 -2.4903,-0.52475 -0.2064,0.13695 -2.5193,0.7098 -2.9861,0.73101 -4.368,0.71346 -7.707,-0.0641 -11.8786,-1.24643 -2.7324,-0.0695 -5.2832,0.52873 -7.7507,1.62786 l -4.0335,2.01183 -0.6482,-1.16126 -1.1612,-0.28745 -1.1439,0.0945 c 0,0 0.3279,2.53662 0.2932,2.7083 -0.035,0.17168 -2.4384,3.42774 -2.4384,3.42774 l -1.4563,-0.23152 -1.1863,-0.83913 -0.1004,2.47102 c 0,0 -1.3021,0.35682 -2.1103,0.35102 -0.8083,-0.006 -1.3542,0.14657 -2.1836,-0.32605 -0.8295,-0.47263 -2.228,-1.30212 -2.228,-1.30212 0.6795,2.08707 3.4537,2.9182 5.2506,4.18409 z"
           id="path5245"
           sodipodi:nodetypes="ccccsccssscsscssscsscsscccccscscsssccccccccssscccccccsccccsscc" />
        <path
           transform="matrix(0.186875,-0.00848956,0.00848956,0.186875,-1189.643,-420.9191)"
           sodipodi:type="arc"
           style="color:black;fill:white;fill-opacity:1;fill-rule:nonzero;stroke:none;stroke-width:4.45927477;marker:none;visibility:visible;display:inline;overflow:visible"
           id="path5247"
           sodipodi:cx="-633.47833"
           sodipodi:cy="-459.43405"
           sodipodi:rx="4.1750154"
           sodipodi:ry="2.0875077"
           d="m -629.30332,-459.43405 c 0,1.1529 -1.86922,2.08751 -4.17501,2.08751 -2.3058,0 -4.17502,-0.93461 -4.17502,-2.08751 0,-1.1529 1.86922,-2.08751 4.17502,-2.08751 2.30579,0 4.17501,0.93461 4.17501,2.08751 z" />
        <rect
           style="color:black;fill:black;fill-opacity:1;fill-rule:nonzero;stroke:none;stroke-width:0.83418727;marker:none;visibility:visible;display:inline;overflow:visible"
           id="rect5249"
           width="21.150417"
           height="10.76925"
           x="-1325.5865"
           y="-457.56732"
           ry="0.73204428"
           transform="matrix(0.998838,0.04819282,-0.04819282,0.998838,0,0)" />
        <rect
           transform="matrix(0.999994,0.00346165,-0.00346165,0.999994,0,0)"
           ry="0.55068141"
           y="-524.61981"
           x="-1302.4512"
           height="8.1011848"
           width="15.910435"
           id="rect5251"
           style="color:black;fill:black;fill-opacity:1;fill-rule:nonzero;stroke:none;stroke-width:0.83418733;marker:none;visibility:visible;display:inline;overflow:visible" />
        <path
           inkscape:connector-curvature="0"
           style="color:black;fill:white;fill-opacity:1;fill-rule:nonzero;stroke:none;stroke-width:0.83418733;marker:none;visibility:visible;display:inline;overflow:visible"
           d="m -1298.0559,-529.97429 0.8079,-0.58256 12.5261,39.53344 -1.0479,0.59346 -12.2861,-39.54434 z"
           id="path5253"
           sodipodi:nodetypes="ccccc" />
        <path
           inkscape:connector-curvature="0"
           sodipodi:nodetypes="ccccc"
           id="path5255"
           d="m -1288.4772,-529.68563 -0.8574,-0.5069 -7.5862,37.01476 1.0974,0.496 7.3462,-37.00386 z"
           style="color:black;fill:white;fill-opacity:1;fill-rule:nonzero;stroke:none;stroke-width:0.83418733;marker:none;visibility:visible;display:inline;overflow:visible" />
      </g>
      <path
         inkscape:connector-curvature="0"
         id="path5257"
         d="m -1923.745,-145.67226 -1.1414,0.61935 c 0,-0.44762 -0.044,-0.87098 -0.1414,-1.27017 -0.09,-0.39713 -0.2317,-0.77235 -0.4243,-1.12547 -0.4302,-0.79029 -1.0167,-1.26711 -1.7589,-1.43051 -0.7381,-0.1658 -1.5602,-0.003 -2.4668,0.48939 -0.9071,0.49212 -1.4933,1.09354 -1.7596,1.80426 -0.2617,0.70831 -0.1774,1.45761 0.2528,2.24785 0.1925,0.35318 0.4289,0.67675 0.7093,0.97071 0.2871,0.29594 0.6199,0.56447 0.9978,0.8056 l -1.1281,0.61213 c -0.3446,-0.25351 -0.6564,-0.54188 -0.9357,-0.86509 -0.2765,-0.31884 -0.527,-0.68348 -0.7503,-1.09412 -0.6085,-1.11688 -0.74,-2.19514 -0.395,-3.23458 0.3452,-1.03953 1.1148,-1.88331 2.3087,-2.53143 1.2122,-0.65774 2.3458,-0.84396 3.401,-0.5586 1.0576,0.28977 1.9014,1.01293 2.5313,2.16969 0.2046,0.37522 0.3643,0.76325 0.4792,1.16407 0.1194,0.39844 0.1933,0.80738 0.2214,1.22692 m 5.281,6.30577 -6.63,5.24319 -0.8581,-1.08115 5.3214,-4.20857 -7.8537,1.0183 -1.1068,-1.39424 6.6299,-5.24317 0.8583,1.08114 -5.3101,4.19923 7.8375,-1.01485 1.1116,1.40012 m -5.2892,6.73063 0.7664,-0.86331 c 0.7792,0.50116 1.4846,0.60807 2.1163,0.3207 0.8472,-0.43919 2.0271,-1.51079 3.5399,-3.21476 l 0.9166,-1.03258 4.279,3.7837 -5.6094,6.3194 -1.0403,-0.91966 4.8731,-5.48999 -2.1986,-1.94432 -0.5562,0.62626 c -1.4421,1.62499 -2.653,2.65578 -3.6326,3.09227 -1.0455,0.46541 -2.1966,0.2395 -3.4542,-0.67771 m 12.6799,-0.23239 1.1827,0.74269 -1.8386,2.91558 3.8157,2.3967 1.8386,-2.91565 1.1822,0.74273 -4.5052,7.14541 -1.1827,-0.74267 2.076,-3.29201 -3.8159,-2.39666 -2.0759,3.29199 -1.1824,-0.74263 4.5055,-7.14548 m 14.1888,7.45188 -3.3575,7.74907 -1.2685,-0.54746 2.6953,-6.21996 -6.438,4.60456 -1.636,-0.70593 3.3573,-7.74904 1.2688,0.54739 -2.6894,6.2062 6.4255,-4.59378 1.6425,0.70895 m 12.7398,3.06661 -1.5682,8.29623 -1.3579,-0.25557 1.2584,-6.65917 -5.2661,5.90509 -1.7512,-0.32956 1.5679,-8.29623 1.358,0.25555 -1.2558,6.64442 5.2559,-5.8917 1.759,0.33094"
         style="font-size:8px;font-style:normal;font-variant:normal;font-weight:normal;font-stretch:normal;text-align:start;line-height:125%;writing-mode:lr-tb;text-anchor:start;fill:#333;fill-opacity:1;stroke:none;font-family:Sans"
         inkscape:export-filename="/home/joro/linux/joro/hamali/images/varianti_site_stranitsiv2.jpg"
         inkscape:export-xdpi="89.994392"
         inkscape:export-ydpi="89.994392" />
      <path
         inkscape:connector-curvature="0"
         id="path5259"
         d="m -1874.2618,-122.4263 1.3664,-0.20658 0.5949,3.92019 3.2804,-4.50606 1.6872,-0.25513 -2.7059,3.71023 4.3835,4.57483 -1.5381,0.23257 -3.6033,-3.76269 -1.2448,1.71292 0.4127,2.72027 -1.3665,0.20661 -1.2665,-8.34716 m 11.8252,-1.21758 c -0.7214,0.18701 -1.218,0.61693 -1.4902,1.28979 -0.2736,0.66801 -0.2828,1.4908 -0.029,2.46843 0.2543,0.97762 0.662,1.69483 1.223,2.15163 0.5647,0.45068 1.2102,0.58191 1.936,0.39364 0.7166,-0.1857 1.2106,-0.61501 1.483,-1.28786 0.2722,-0.67284 0.282,-1.49566 0.029,-2.46844 -0.252,-0.96787 -0.6608,-1.67958 -1.2266,-2.13515 -0.5674,-0.4604 -1.209,-0.59774 -1.9253,-0.41204 m -0.2963,-1.13811 c 1.1697,-0.30318 2.1868,-0.162 3.0519,0.42367 0.8652,0.58567 1.4723,1.5497 1.8219,2.89209 0.3477,1.33756 0.2875,2.47467 -0.1815,3.41137 -0.4701,0.93184 -1.29,1.54938 -2.4593,1.8526 -1.1745,0.3045 -2.1943,0.16391 -3.0592,-0.42174 -0.8613,-0.59179 -1.4662,-1.55646 -1.8144,-2.89402 -0.3495,-1.3424 -0.2912,-2.47889 0.1738,-3.4095 0.4702,-0.93181 1.2926,-1.54997 2.4668,-1.85447 m 8.8754,4.98456 1.7275,4.13207 -1.2893,0.53708 -4.4966,-10.75449 1.2892,-0.53707 0.4946,1.18258 c 0.076,-0.57598 0.2712,-1.06046 0.5871,-1.45342 0.3187,-0.39946 0.7636,-0.71824 1.3351,-0.9563 0.948,-0.39481 1.8738,-0.33951 2.7781,0.16597 0.9087,0.50354 1.6191,1.3675 2.1311,2.59181 0.5118,1.22434 0.6276,2.33601 0.347,3.335 -0.276,0.99708 -0.8879,1.69304 -1.8356,2.08786 -0.5716,0.23806 -1.1108,0.33191 -1.6172,0.28154 -0.5039,-0.0569 -0.9875,-0.26112 -1.451,-0.61263 m 3.2257,-4.53728 c -0.3936,-0.9414 -0.8971,-1.59747 -1.5104,-1.96826 -0.6105,-0.37727 -1.2552,-0.42465 -1.9334,-0.14209 -0.6783,0.28256 -1.1001,0.77411 -1.2658,1.47464 -0.1626,0.69398 -0.047,1.51166 0.3466,2.45308 0.3937,0.94144 0.8959,1.60077 1.5065,1.97811 0.6132,0.37073 1.2588,0.41483 1.9372,0.13226 0.6785,-0.28256 1.099,-0.77083 1.2616,-1.46482 0.1654,-0.7005 0.051,-1.52149 -0.3423,-2.46292 m 8.643,-5.49983 0.3649,0.57245 -5.3912,3.42216 c 0.5641,0.77331 1.1981,1.23446 1.9016,1.38341 0.7052,0.14201 1.4464,-0.0337 2.2239,-0.52725 0.4502,-0.28583 0.8505,-0.61737 1.2011,-0.99459 0.3545,-0.37991 0.6695,-0.8123 0.9453,-1.29704 l 0.7054,1.10669 c -0.3072,0.4451 -0.6519,0.85451 -1.0342,1.22826 -0.3825,0.37375 -0.8011,0.7049 -1.2555,0.99344 -1.1386,0.72272 -2.2521,0.96504 -3.3406,0.72696 -1.0843,-0.2408 -1.9856,-0.92516 -2.7044,-2.05308 -0.7429,-1.16609 -1.0175,-2.29003 -0.8236,-3.37184 0.1951,-1.08873 0.828,-1.97289 1.8986,-2.6525 0.96,-0.60946 1.9157,-0.78128 2.8665,-0.5155 0.9528,0.25888 1.7668,0.91835 2.4422,1.97843 m -1.3914,0.40087 c -0.4165,-0.6349 -0.9227,-1.03126 -1.5184,-1.18903 -0.5915,-0.16051 -1.1761,-0.0574 -1.7539,0.30936 -0.6544,0.41531 -1.0616,0.93285 -1.2211,1.55253 -0.156,0.617 -0.05,1.27937 0.317,1.9871 l 4.1764,-2.65996 m -0.1657,-4.15604 1.0167,-0.9342 2.6903,2.91724 0.1936,-5.56667 1.2555,-1.15369 -0.1634,4.58635 6.1976,1.34449 -1.1449,1.05161 -5.0955,-1.1069 -0.072,2.11486 1.8668,2.02433 -1.0169,0.93421 -5.7282,-6.21163 m 5.4333,-5.1617 5.3564,-6.06889 0.8332,0.73245 -2.2266,2.52259 5.5136,4.84828 -0.9034,1.02372 -5.5141,-4.84826 -2.2261,2.52256 -0.833,-0.73245 m 6.0726,-6.91911 0.828,-1.12315 2.78,2.04181 2.6721,-3.62442 -2.7798,-2.04178 0.8281,-1.12315 6.8123,5.00391 -0.8279,1.12318 -3.1386,-2.30539 -2.6726,3.6244 3.1388,2.30539 -0.8283,1.12314 -6.8121,-5.00394 m 8.6972,-13.57184 7.4505,3.9963 -0.6543,1.21508 -5.9805,-3.20775 4.0501,6.79326 -0.8437,1.56698 -7.4505,-3.99632 0.6542,-1.21507 5.9671,3.20062 -4.0403,-6.77947 0.8474,-1.57363"
         style="font-size:8px;font-style:normal;font-variant:normal;font-weight:normal;font-stretch:normal;text-align:start;line-height:125%;writing-mode:lr-tb;text-anchor:start;fill:#333;fill-opacity:1;stroke:none;font-family:Sans"
         inkscape:export-filename="/home/joro/linux/joro/hamali/images/varianti_site_stranitsiv2.jpg"
         inkscape:export-xdpi="89.994392"
         inkscape:export-ydpi="89.994392" />
      <path
         inkscape:connector-curvature="0"
         style="fill:none;stroke:#7f7f7f;stroke-width:1.69971192;stroke-linecap:butt;stroke-linejoin:miter;stroke-miterlimit:4;stroke-opacity:1;stroke-dasharray:none"
         d="m -1909.3459,-235.44185 0,-17.56907"
         id="path5261"
         inkscape:export-filename="/home/joro/linux/joro/hamali/images/varianti_site_stranitsiv2.jpg"
         inkscape:export-xdpi="89.994392"
         inkscape:export-ydpi="89.994392" />
      <path
         inkscape:connector-curvature="0"
         id="path5263"
         d="m -1831.7337,-197.47926 0,-33.32129"
         style="fill:none;stroke:#7f7f7f;stroke-width:1.69971192;stroke-linecap:butt;stroke-linejoin:miter;stroke-miterlimit:4;stroke-opacity:1;stroke-dasharray:none"
         inkscape:export-filename="/home/joro/linux/joro/hamali/images/varianti_site_stranitsiv2.jpg"
         inkscape:export-xdpi="89.994392"
         inkscape:export-ydpi="89.994392" />
      <path
         inkscape:connector-curvature="0"
         style="fill:none;stroke:#7f7f7f;stroke-width:1.69971192;stroke-linecap:butt;stroke-linejoin:miter;stroke-miterlimit:4;stroke-opacity:1;stroke-dasharray:none"
         d="m -1869.0767,-155.62917 0,-17.05843"
         id="path5265"
         inkscape:export-filename="/home/joro/linux/joro/hamali/images/varianti_site_stranitsiv2.jpg"
         inkscape:export-xdpi="89.994392"
         inkscape:export-ydpi="89.994392" />
      <path
         inkscape:connector-curvature="0"
         id="path5267"
         d="m -1907.7122,-152.16216 0,-26.18338"
         style="fill:none;stroke:#7f7f7f;stroke-width:1.69971192;stroke-linecap:butt;stroke-linejoin:miter;stroke-miterlimit:4;stroke-opacity:1;stroke-dasharray:none"
         inkscape:export-filename="/home/joro/linux/joro/hamali/images/varianti_site_stranitsiv2.jpg"
         inkscape:export-xdpi="89.994392"
         inkscape:export-ydpi="89.994392" />
      <path
         inkscape:connector-curvature="0"
         id="path5269"
         d="m -1919.7227,-208.3165 0,-18.36432"
         style="fill:none;stroke:#7f7f7f;stroke-width:1.69971192;stroke-linecap:butt;stroke-linejoin:miter;stroke-miterlimit:4;stroke-opacity:1;stroke-dasharray:none"
         inkscape:export-filename="/home/joro/linux/joro/hamali/images/varianti_site_stranitsiv2.jpg"
         inkscape:export-xdpi="89.994392"
         inkscape:export-ydpi="89.994392" />
      <path
         inkscape:connector-curvature="0"
         style="fill:none;stroke:#7f7f7f;stroke-width:1.69971192;stroke-linecap:butt;stroke-linejoin:miter;stroke-miterlimit:4;stroke-opacity:1;stroke-dasharray:none"
         d="m -1842.2325,-233.17636 0,-19.65237"
         id="path5271"
         inkscape:export-filename="/home/joro/linux/joro/hamali/images/varianti_site_stranitsiv2.jpg"
         inkscape:export-xdpi="89.994392"
         inkscape:export-ydpi="89.994392" />
      <path
         inkscape:connector-curvature="0"
         style="fill:none;stroke:#7f7f7f;stroke-width:1.69971192;stroke-linecap:butt;stroke-linejoin:miter;stroke-miterlimit:4;stroke-opacity:1;stroke-dasharray:none"
         d="m -1899.2165,-217.95007 0,-15.19196"
         id="path5273"
         inkscape:export-filename="/home/joro/linux/joro/hamali/images/varianti_site_stranitsiv2.jpg"
         inkscape:export-xdpi="89.994392"
         inkscape:export-ydpi="89.994392" />
      <path
         inkscape:connector-curvature="0"
         id="path5275"
         d="m -1884.277,-133.71851 0,-17.05844"
         style="fill:none;stroke:#7f7f7f;stroke-width:1.69971192;stroke-linecap:butt;stroke-linejoin:miter;stroke-miterlimit:4;stroke-opacity:1;stroke-dasharray:none"
         inkscape:export-filename="/home/joro/linux/joro/hamali/images/varianti_site_stranitsiv2.jpg"
         inkscape:export-xdpi="89.994392"
         inkscape:export-ydpi="89.994392" />
      <path
         inkscape:connector-curvature="0"
         style="fill:none;stroke:#7f7f7f;stroke-width:1.69971192;stroke-linecap:butt;stroke-linejoin:miter;stroke-miterlimit:4;stroke-opacity:1;stroke-dasharray:none"
         d="m -1848.8306,-216.4638 17.4139,0"
         id="path5277"
         inkscape:export-filename="/home/joro/linux/joro/hamali/images/varianti_site_stranitsiv2.jpg"
         inkscape:export-xdpi="89.994392"
         inkscape:export-ydpi="89.994392" />
      <path
         inkscape:connector-curvature="0"
         inkscape:export-ydpi="89.994392"
         inkscape:export-xdpi="89.994392"
         inkscape:export-filename="/home/joro/linux/joro/hamali/images/varianti_site_stranitsiv2.jpg"
         style="font-size:74.33059692px;font-style:normal;font-variant:normal;font-weight:normal;font-stretch:normal;text-align:start;line-height:125%;writing-mode:lr-tb;text-anchor:start;fill:white;fill-opacity:1;stroke:#009;stroke-width:2.74881577;stroke-linecap:butt;stroke-linejoin:miter;stroke-miterlimit:4;stroke-opacity:1;stroke-dasharray:none;font-family:Medieval Dingbats"
         d="m -1781.9044,-270.6653 0,111.75434 c 0,13.90638 -2.6078,25.50756 -7.823,34.80355 -5.2156,9.29611 -12.1313,17.38299 -20.7476,24.260456 -8.6165,6.877604 -18.4803,13.112781 -29.5906,18.705499 -11.1113,5.517211 -22.5241,11.487842 -34.2394,17.911976 -10.2044,-5.214838 -20.7862,-10.694221 -31.7457,-16.438199 -10.9593,-5.819405 -20.9364,-12.432495 -29.9311,-19.839174 -8.9938,-7.406568 -16.4015,-15.909018 -22.2216,-25.507488 -5.8194,-9.67383 -8.7298,-20.97275 -8.7298,-33.89662 l 0,-111.75434 185.0288,0"
         id="path5279"
         sodipodi:nodetypes="ccsscccscccc" />
    </g>
    <g
       id="g5297"
       transform="matrix(0.96748336,0,0,0.96748336,1891.8191,1805.7401)"
       inkscape:export-filename="F:\work_05_13\Niki_Kolev\h5bp-html5-boilerplate-v4.2.0-0-g0adda79\h5bp-html5-boilerplate-defe483\img\logo_hamali_kolev.png"
       inkscape:export-xdpi="90.014015"
       inkscape:export-ydpi="90.014015">
      <path
         inkscape:connector-curvature="0"
         style="fill:none;stroke:#7f7f7f;stroke-width:1.69971192;stroke-linecap:butt;stroke-linejoin:miter;stroke-miterlimit:4;stroke-opacity:1;stroke-dasharray:none"
         d="m -1908.0092,-874.87747 86.8969,0"
         id="path5299"
         inkscape:export-filename="/home/joro/linux/joro/hamali/images/varianti_site_stranitsiv2.jpg"
         inkscape:export-xdpi="89.994392"
         inkscape:export-ydpi="89.994392" />
      <path
         inkscape:connector-curvature="0"
         id="path5301"
         d="m -1934.4079,-890.99038 81.169,0"
         style="fill:none;stroke:#7f7f7f;stroke-width:1.69971192;stroke-linecap:butt;stroke-linejoin:miter;stroke-miterlimit:4;stroke-opacity:1;stroke-dasharray:none"
         inkscape:export-filename="/home/joro/linux/joro/hamali/images/varianti_site_stranitsiv2.jpg"
         inkscape:export-xdpi="89.994392"
         inkscape:export-ydpi="89.994392" />
      <path
         inkscape:connector-curvature="0"
         style="fill:none;stroke:#7f7f7f;stroke-width:1.69971192;stroke-linecap:butt;stroke-linejoin:miter;stroke-miterlimit:4;stroke-opacity:1;stroke-dasharray:none"
         d="m -1934.0395,-916.08929 112.098,0"
         id="path5303"
         inkscape:export-filename="/home/joro/linux/joro/hamali/images/varianti_site_stranitsiv2.jpg"
         inkscape:export-xdpi="89.994392"
         inkscape:export-ydpi="89.994392" />
      <path
         inkscape:connector-curvature="0"
         id="path5305"
         d="m -1921.013,-834.59524 86.9603,0"
         style="fill:none;stroke:#7f7f7f;stroke-width:1.69971192;stroke-linecap:butt;stroke-linejoin:miter;stroke-miterlimit:4;stroke-opacity:1;stroke-dasharray:none"
         inkscape:export-filename="/home/joro/linux/joro/hamali/images/varianti_site_stranitsiv2.jpg"
         inkscape:export-xdpi="89.994392"
         inkscape:export-ydpi="89.994392" />
      <path
         inkscape:connector-curvature="0"
         style="fill:none;stroke:#7f7f7f;stroke-width:1.69971192;stroke-linecap:butt;stroke-linejoin:miter;stroke-miterlimit:4;stroke-opacity:1;stroke-dasharray:none"
         d="m -1841.3544,-837.52279 0,-34.22611"
         id="path5307"
         inkscape:export-filename="/home/joro/linux/joro/hamali/images/varianti_site_stranitsiv2.jpg"
         inkscape:export-xdpi="89.994392"
         inkscape:export-ydpi="89.994392" />
      <path
         inkscape:connector-curvature="0"
         sodipodi:nodetypes="ccsscccscccc"
         id="path5309"
         d="m -1820.9174,-936.15112 0,69.10255 c 0,8.59892 -1.6125,15.77243 -4.8373,21.52054 -3.225,5.74819 -7.5013,10.74866 -12.8291,15.00129 -5.328,4.25272 -11.4272,8.1082 -18.2972,11.56642 -6.8706,3.41153 -13.9276,7.10343 -21.1717,11.07575 -6.3098,-3.22456 -12.853,-6.6127 -19.6297,-10.16445 -6.7766,-3.59839 -12.9459,-7.68755 -18.5077,-12.26742 -5.5613,-4.5798 -10.1418,-9.83723 -13.7406,-15.77238 -3.5984,-5.98175 -5.398,-12.96836 -5.398,-20.95975 l 0,-69.10255 114.4113,0"
         style="font-size:74.33059692px;font-style:normal;font-variant:normal;font-weight:normal;font-stretch:normal;text-align:start;line-height:125%;writing-mode:lr-tb;text-anchor:start;fill:none;stroke:#009;stroke-width:1.69971192;stroke-linecap:butt;stroke-linejoin:miter;stroke-miterlimit:4;stroke-opacity:1;stroke-dasharray:none;font-family:Medieval Dingbats"
         inkscape:export-filename="/home/joro/linux/joro/hamali/images/varianti_site_stranitsiv2.jpg"
         inkscape:export-xdpi="89.994392"
         inkscape:export-ydpi="89.994392" />
      <g
         transform="matrix(1.941335,0,0,1.937682,638.5868,98.75277)"
         id="g5311"
         style="stroke-width:0.83418733;stroke-miterlimit:4;stroke-dasharray:none"
         inkscape:export-filename="/home/joro/linux/joro/hamali/images/varianti_site_stranitsiv2.jpg"
         inkscape:export-xdpi="89.994392"
         inkscape:export-ydpi="89.994392">
        <path
           inkscape:connector-curvature="0"
           style="fill:#009;fill-rule:evenodd;stroke:none"
           d="m -1319.2437,-497.29068 0.6654,2.47876 c 2.6304,1.43536 5.2563,-0.034 7.498,-1.57385 0.4592,-0.19096 2.3882,-1.72445 2.3882,-1.72445 0,0 0.4031,0.44946 0.7002,0.43596 0.297,-0.0135 1.192,0.0309 1.192,0.0309 l 3.4086,2.01394 c 0,0 -1.7362,2.03503 -1.8963,2.25493 -0.1601,0.2199 -0.6058,1.64348 -0.4939,2.23375 0.1119,0.59027 2.1747,3.87396 2.3097,4.03793 0.135,0.16397 2.2685,-0.61336 2.2685,-0.61336 0,0 0.436,-0.70021 0,-0.89312 -0.4341,-0.19291 -1.4641,-0.40127 -1.5181,-0.65396 -0.054,-0.2527 -0.186,-2.22078 -0.186,-2.22078 0,0 1.3638,-0.86993 1.5355,-0.8352 0.097,0.0196 0.8418,1.72529 1.1067,2.31407 0.2051,0.45614 0.8775,1.11416 0.8994,1.18742 0.05,0.16782 2.0629,-0.0538 2.0629,-0.0538 0,0 -0.4193,-3.61351 -0.3113,-4.04367 0.108,-0.43016 0.3743,-1.12266 0.6713,-1.13615 0.2971,-0.0135 3.8406,1.22886 3.8406,1.22886 0,0 2.0717,0.67133 3.9389,0.58651 1.8673,-0.0848 2.8279,-0.46867 3.9911,-1.07434 1.1632,-0.60567 2.5116,-1.81511 2.5116,-1.81511 l 0.7273,-0.84102 c 0,0 0.1542,2.45946 0.083,2.76038 -0.2155,1.59914 -2.3524,4.24475 0.3107,4.19161 0.4225,-0.0617 1.9503,-0.13112 1.9503,-0.13112 0,0 -0.018,-2.41887 0.538,-3.29461 0.5555,-0.87575 1.2288,-1.96947 1.2288,-1.96947 0,0 1.6203,0.0965 2.986,2.07566 0.7679,1.11287 2.457,3.53735 2.457,3.53735 0,0 1.169,0.4572 1.5085,0.44178 0.3395,-0.0154 0.8854,-0.1678 0.9607,-0.38385 0.075,-0.21604 0.039,-1.02236 0.11,-1.32328 0.071,-0.30092 0.073,-1.19403 0.073,-1.19403 l -2.8852,-3.60294 -0.072,-4.16629 0.7068,3.60219 0.3318,-1.56355 c 0,0 -0.7021,-4.22062 -0.7195,-4.60257 -0.1308,-2.32334 -1.7209,-3.85522 -3.2656,-5.42245 l -1.545,-1.24809 c 0,0 -0.9568,-0.46684 -1.1266,-0.45912 -0.1697,0.008 -2.3494,-0.23347 -2.6909,-0.26048 -0.3414,-0.027 -2.2839,-0.6617 -2.4903,-0.52475 -0.2064,0.13695 -2.5193,0.7098 -2.9861,0.73101 -4.368,0.71346 -7.707,-0.0641 -11.8786,-1.24643 -2.7324,-0.0695 -5.2832,0.52873 -7.7507,1.62786 l -4.0335,2.01183 -0.6482,-1.16126 -1.1612,-0.28745 -1.1439,0.0945 c 0,0 0.3279,2.53662 0.2932,2.7083 -0.035,0.17168 -2.4384,3.42774 -2.4384,3.42774 l -1.4563,-0.23152 -1.1863,-0.83913 -0.1004,2.47102 c 0,0 -1.3021,0.35682 -2.1103,0.35102 -0.8083,-0.006 -1.3542,0.14657 -2.1836,-0.32605 -0.8295,-0.47263 -2.228,-1.30212 -2.228,-1.30212 0.6795,2.08707 3.4537,2.9182 5.2506,4.18409 z"
           id="path5313"
           sodipodi:nodetypes="ccccsccssscsscssscsscsscccccscscsssccccccccssscccccccsccccsscc" />
        <path
           transform="matrix(0.186875,-0.00848956,0.00848956,0.186875,-1189.643,-420.9191)"
           style="color:black;fill:white;fill-opacity:1;fill-rule:nonzero;stroke:none;stroke-width:4.45927477;marker:none;visibility:visible;display:inline;overflow:visible"
           d="m -629.30332,-459.43405 c 0,1.1529 -1.86922,2.08751 -4.17501,2.08751 -2.3058,0 -4.17502,-0.93461 -4.17502,-2.08751 0,-1.1529 1.86922,-2.08751 4.17502,-2.08751 2.30579,0 4.17501,0.93461 4.17501,2.08751 z"
           id="path5315" />
        <path
           transform="matrix(0.998838,0.04819282,-0.04819282,0.998838,0,0)"
           style="color:black;fill:black;fill-opacity:1;fill-rule:nonzero;stroke:none;stroke-width:0.83418727;marker:none;visibility:visible;display:inline;overflow:visible"
           d="m -1324.8545,-457.56732 19.6863,0 c 0.4056,0 0.7321,0.32649 0.7321,0.73204 l 0,9.30516 c 0,0.40556 -0.3265,0.73205 -0.7321,0.73205 l -19.6863,0 c -0.4056,0 -0.732,-0.32649 -0.732,-0.73205 l 0,-9.30516 c 0,-0.40555 0.3264,-0.73204 0.732,-0.73204 z"
           id="rect5317" />
        <path
           transform="matrix(0.999994,0.00346165,-0.00346165,0.999994,0,0)"
           style="color:black;fill:black;fill-opacity:1;fill-rule:nonzero;stroke:none;marker:none;visibility:visible;display:inline;overflow:visible"
           d="m -1301.9005,-524.61981 14.8091,0 c 0.3051,0 0.5507,0.2456 0.5507,0.55068 l 0,6.99982 c 0,0.30508 -0.2456,0.55068 -0.5507,0.55068 l -14.8091,0 c -0.3051,0 -0.5507,-0.2456 -0.5507,-0.55068 l 0,-6.99982 c 0,-0.30508 0.2456,-0.55068 0.5507,-0.55068 z"
           id="rect5319" />
        <path
           inkscape:connector-curvature="0"
           style="color:black;fill:white;fill-opacity:1;fill-rule:nonzero;stroke:none;stroke-width:0.83418733;marker:none;visibility:visible;display:inline;overflow:visible"
           d="m -1298.0559,-529.97429 0.8079,-0.58256 12.5261,39.53344 -1.0479,0.59346 -12.2861,-39.54434 z"
           id="path5321"
           sodipodi:nodetypes="ccccc" />
        <path
           inkscape:connector-curvature="0"
           sodipodi:nodetypes="ccccc"
           id="path5323"
           d="m -1288.4772,-529.68563 -0.8574,-0.5069 -7.5862,37.01476 1.0974,0.496 7.3462,-37.00386 z"
           style="color:black;fill:white;fill-opacity:1;fill-rule:nonzero;stroke:none;stroke-width:0.83418733;marker:none;visibility:visible;display:inline;overflow:visible" />
      </g>
      <path
         inkscape:connector-curvature="0"
         id="path5325"
         d="m -1923.745,-827.94541 -1.1414,0.61935 c 0,-0.44762 -0.044,-0.87098 -0.1414,-1.27017 -0.09,-0.39713 -0.2317,-0.77235 -0.4243,-1.12547 -0.4302,-0.79029 -1.0167,-1.26711 -1.7589,-1.43051 -0.7381,-0.1658 -1.5602,-0.003 -2.4668,0.48939 -0.9071,0.49212 -1.4933,1.09354 -1.7596,1.80426 -0.2617,0.70831 -0.1774,1.45761 0.2528,2.24785 0.1925,0.35318 0.4289,0.67675 0.7093,0.97071 0.2871,0.29594 0.6199,0.56447 0.9978,0.8056 l -1.1281,0.61213 c -0.3446,-0.25351 -0.6564,-0.54188 -0.9357,-0.86509 -0.2765,-0.31884 -0.527,-0.68348 -0.7503,-1.09412 -0.6085,-1.11688 -0.74,-2.19514 -0.395,-3.23458 0.3452,-1.03953 1.1148,-1.88331 2.3087,-2.53143 1.2122,-0.65774 2.3458,-0.84396 3.401,-0.5586 1.0576,0.28977 1.9014,1.01293 2.5313,2.16969 0.2046,0.37522 0.3643,0.76325 0.4792,1.16407 0.1194,0.39844 0.1933,0.80738 0.2214,1.22692 m 5.281,6.30577 -6.63,5.24319 -0.8581,-1.08115 5.3214,-4.20857 -7.8537,1.0183 -1.1068,-1.39424 6.6299,-5.24317 0.8583,1.08114 -5.3101,4.19923 7.8375,-1.01485 1.1116,1.40012 m -5.2892,6.73063 0.7664,-0.86331 c 0.7792,0.50116 1.4846,0.60807 2.1163,0.3207 0.8472,-0.43919 2.0271,-1.51079 3.5399,-3.21476 l 0.9166,-1.03258 4.279,3.7837 -5.6094,6.3194 -1.0403,-0.91966 4.8731,-5.48999 -2.1986,-1.94432 -0.5562,0.62626 c -1.4421,1.62499 -2.653,2.65578 -3.6326,3.09227 -1.0455,0.46541 -2.1966,0.2395 -3.4542,-0.67771 m 12.6799,-0.23239 1.1827,0.74269 -1.8386,2.91558 3.8157,2.3967 1.8386,-2.91565 1.1822,0.74273 -4.5052,7.14541 -1.1827,-0.74267 2.076,-3.29201 -3.8159,-2.39666 -2.0759,3.29199 -1.1824,-0.74263 4.5055,-7.14548 m 14.1888,7.45188 -3.3575,7.74907 -1.2685,-0.54746 2.6953,-6.21996 -6.438,4.60456 -1.636,-0.70593 3.3573,-7.74904 1.2688,0.54739 -2.6894,6.2062 6.4255,-4.59378 1.6425,0.70895 m 12.7398,3.06661 -1.5682,8.29623 -1.3579,-0.25557 1.2584,-6.65917 -5.2661,5.90509 -1.7512,-0.32956 1.5679,-8.29623 1.358,0.25555 -1.2558,6.64442 5.2559,-5.8917 1.759,0.33094"
         style="font-size:8px;font-style:normal;font-variant:normal;font-weight:normal;font-stretch:normal;text-align:start;line-height:125%;writing-mode:lr-tb;text-anchor:start;fill:#333;fill-opacity:1;stroke:none;font-family:Sans"
         inkscape:export-filename="/home/joro/linux/joro/hamali/images/varianti_site_stranitsiv2.jpg"
         inkscape:export-xdpi="89.994392"
         inkscape:export-ydpi="89.994392" />
      <path
         inkscape:connector-curvature="0"
         id="path5327"
         d="m -1874.2618,-804.69945 1.3664,-0.20658 0.5949,3.92019 3.2804,-4.50606 1.6872,-0.25513 -2.7059,3.71023 4.3835,4.57483 -1.5381,0.23257 -3.6033,-3.76269 -1.2448,1.71292 0.4127,2.72027 -1.3665,0.20661 -1.2665,-8.34716 m 11.8252,-1.21758 c -0.7214,0.18701 -1.218,0.61693 -1.4902,1.28979 -0.2736,0.66801 -0.2828,1.4908 -0.029,2.46843 0.2543,0.97762 0.662,1.69483 1.223,2.15163 0.5647,0.45068 1.2102,0.58191 1.936,0.39364 0.7166,-0.1857 1.2106,-0.61501 1.483,-1.28786 0.2722,-0.67284 0.282,-1.49566 0.029,-2.46844 -0.252,-0.96787 -0.6608,-1.67958 -1.2266,-2.13515 -0.5674,-0.4604 -1.209,-0.59774 -1.9253,-0.41204 m -0.2963,-1.13811 c 1.1697,-0.30318 2.1868,-0.162 3.0519,0.42367 0.8652,0.58567 1.4723,1.5497 1.8219,2.89209 0.3477,1.33756 0.2875,2.47467 -0.1815,3.41137 -0.4701,0.93184 -1.29,1.54938 -2.4593,1.8526 -1.1745,0.3045 -2.1943,0.16391 -3.0592,-0.42174 -0.8613,-0.59179 -1.4662,-1.55646 -1.8144,-2.89402 -0.3495,-1.3424 -0.2912,-2.47889 0.1738,-3.4095 0.4702,-0.93181 1.2926,-1.54997 2.4668,-1.85447 m 8.8754,4.98456 1.7275,4.13207 -1.2893,0.53708 -4.4966,-10.75449 1.2892,-0.53707 0.4946,1.18258 c 0.076,-0.57598 0.2712,-1.06046 0.5871,-1.45342 0.3187,-0.39946 0.7636,-0.71824 1.3351,-0.9563 0.948,-0.39481 1.8738,-0.33951 2.7781,0.16597 0.9087,0.50354 1.6191,1.3675 2.1311,2.59181 0.5118,1.22434 0.6276,2.33601 0.347,3.335 -0.276,0.99708 -0.8879,1.69304 -1.8356,2.08786 -0.5716,0.23806 -1.1108,0.33191 -1.6172,0.28154 -0.5039,-0.0569 -0.9875,-0.26112 -1.451,-0.61263 m 3.2257,-4.53728 c -0.3936,-0.9414 -0.8971,-1.59747 -1.5104,-1.96826 -0.6105,-0.37727 -1.2552,-0.42465 -1.9334,-0.14209 -0.6783,0.28256 -1.1001,0.77411 -1.2658,1.47464 -0.1626,0.69398 -0.047,1.51166 0.3466,2.45308 0.3937,0.94144 0.8959,1.60077 1.5065,1.97811 0.6132,0.37073 1.2588,0.41483 1.9372,0.13226 0.6785,-0.28256 1.099,-0.77083 1.2616,-1.46482 0.1654,-0.7005 0.051,-1.52149 -0.3423,-2.46292 m 8.643,-5.49983 0.3649,0.57245 -5.3912,3.42216 c 0.5641,0.77331 1.1981,1.23446 1.9016,1.38341 0.7052,0.14201 1.4464,-0.0337 2.2239,-0.52725 0.4502,-0.28583 0.8505,-0.61737 1.2011,-0.99459 0.3545,-0.37991 0.6695,-0.8123 0.9453,-1.29704 l 0.7054,1.10669 c -0.3072,0.4451 -0.6519,0.85451 -1.0342,1.22826 -0.3825,0.37375 -0.8011,0.7049 -1.2555,0.99344 -1.1386,0.72272 -2.2521,0.96504 -3.3406,0.72696 -1.0843,-0.2408 -1.9856,-0.92516 -2.7044,-2.05308 -0.7429,-1.16609 -1.0175,-2.29003 -0.8236,-3.37184 0.1951,-1.08873 0.828,-1.97289 1.8986,-2.6525 0.96,-0.60946 1.9157,-0.78128 2.8665,-0.5155 0.9528,0.25888 1.7668,0.91835 2.4422,1.97843 m -1.3914,0.40087 c -0.4165,-0.6349 -0.9227,-1.03126 -1.5184,-1.18903 -0.5915,-0.16051 -1.1761,-0.0574 -1.7539,0.30936 -0.6544,0.41531 -1.0616,0.93285 -1.2211,1.55253 -0.156,0.617 -0.05,1.27937 0.317,1.9871 l 4.1764,-2.65996 m -0.1657,-4.15604 1.0167,-0.9342 2.6903,2.91724 0.1936,-5.56667 1.2555,-1.15369 -0.1634,4.58635 6.1976,1.34449 -1.1449,1.05161 -5.0955,-1.1069 -0.072,2.11486 1.8668,2.02433 -1.0169,0.93421 -5.7282,-6.21163 m 5.4333,-5.1617 5.3564,-6.06889 0.8332,0.73245 -2.2266,2.52259 5.5136,4.84828 -0.9034,1.02372 -5.5141,-4.84826 -2.2261,2.52256 -0.833,-0.73245 m 6.0726,-6.91911 0.828,-1.12315 2.78,2.04181 2.6721,-3.62442 -2.7798,-2.04178 0.8281,-1.12315 6.8123,5.00391 -0.8279,1.12318 -3.1386,-2.30539 -2.6726,3.6244 3.1388,2.30539 -0.8283,1.12314 -6.8121,-5.00394 m 8.6972,-13.57184 7.4505,3.9963 -0.6543,1.21508 -5.9805,-3.20775 4.0501,6.79326 -0.8437,1.56698 -7.4505,-3.99632 0.6542,-1.21507 5.9671,3.20062 -4.0403,-6.77947 0.8474,-1.57363"
         style="font-size:8px;font-style:normal;font-variant:normal;font-weight:normal;font-stretch:normal;text-align:start;line-height:125%;writing-mode:lr-tb;text-anchor:start;fill:#333;fill-opacity:1;stroke:none;font-family:Sans"
         inkscape:export-filename="/home/joro/linux/joro/hamali/images/varianti_site_stranitsiv2.jpg"
         inkscape:export-xdpi="89.994392"
         inkscape:export-ydpi="89.994392" />
      <path
         inkscape:connector-curvature="0"
         style="fill:none;stroke:#7f7f7f;stroke-width:1.69971192;stroke-linecap:butt;stroke-linejoin:miter;stroke-miterlimit:4;stroke-opacity:1;stroke-dasharray:none"
         d="m -1909.3459,-917.715 0,-17.56907"
         id="path5329"
         inkscape:export-filename="/home/joro/linux/joro/hamali/images/varianti_site_stranitsiv2.jpg"
         inkscape:export-xdpi="89.994392"
         inkscape:export-ydpi="89.994392" />
      <path
         inkscape:connector-curvature="0"
         id="path5331"
         d="m -1831.7337,-879.75241 0,-33.32129"
         style="fill:none;stroke:#7f7f7f;stroke-width:1.69971192;stroke-linecap:butt;stroke-linejoin:miter;stroke-miterlimit:4;stroke-opacity:1;stroke-dasharray:none"
         inkscape:export-filename="/home/joro/linux/joro/hamali/images/varianti_site_stranitsiv2.jpg"
         inkscape:export-xdpi="89.994392"
         inkscape:export-ydpi="89.994392" />
      <path
         inkscape:connector-curvature="0"
         style="fill:none;stroke:#7f7f7f;stroke-width:1.69971192;stroke-linecap:butt;stroke-linejoin:miter;stroke-miterlimit:4;stroke-opacity:1;stroke-dasharray:none"
         d="m -1869.0767,-837.90232 0,-17.05843"
         id="path5333"
         inkscape:export-filename="/home/joro/linux/joro/hamali/images/varianti_site_stranitsiv2.jpg"
         inkscape:export-xdpi="89.994392"
         inkscape:export-ydpi="89.994392" />
      <path
         inkscape:connector-curvature="0"
         id="path5335"
         d="m -1907.7122,-834.43531 0,-26.18338"
         style="fill:none;stroke:#7f7f7f;stroke-width:1.69971192;stroke-linecap:butt;stroke-linejoin:miter;stroke-miterlimit:4;stroke-opacity:1;stroke-dasharray:none"
         inkscape:export-filename="/home/joro/linux/joro/hamali/images/varianti_site_stranitsiv2.jpg"
         inkscape:export-xdpi="89.994392"
         inkscape:export-ydpi="89.994392" />
      <path
         inkscape:connector-curvature="0"
         id="path5337"
         d="m -1919.7227,-890.58965 0,-18.36432"
         style="fill:none;stroke:#7f7f7f;stroke-width:1.69971192;stroke-linecap:butt;stroke-linejoin:miter;stroke-miterlimit:4;stroke-opacity:1;stroke-dasharray:none"
         inkscape:export-filename="/home/joro/linux/joro/hamali/images/varianti_site_stranitsiv2.jpg"
         inkscape:export-xdpi="89.994392"
         inkscape:export-ydpi="89.994392" />
      <path
         inkscape:connector-curvature="0"
         style="fill:none;stroke:#7f7f7f;stroke-width:1.69971192;stroke-linecap:butt;stroke-linejoin:miter;stroke-miterlimit:4;stroke-opacity:1;stroke-dasharray:none"
         d="m -1842.2325,-915.44951 0,-19.65237"
         id="path5339"
         inkscape:export-filename="/home/joro/linux/joro/hamali/images/varianti_site_stranitsiv2.jpg"
         inkscape:export-xdpi="89.994392"
         inkscape:export-ydpi="89.994392" />
      <path
         inkscape:connector-curvature="0"
         style="fill:none;stroke:#7f7f7f;stroke-width:1.69971192;stroke-linecap:butt;stroke-linejoin:miter;stroke-miterlimit:4;stroke-opacity:1;stroke-dasharray:none"
         d="m -1899.2165,-900.22322 0,-15.19196"
         id="path5341"
         inkscape:export-filename="/home/joro/linux/joro/hamali/images/varianti_site_stranitsiv2.jpg"
         inkscape:export-xdpi="89.994392"
         inkscape:export-ydpi="89.994392" />
      <path
         inkscape:connector-curvature="0"
         id="path5343"
         d="m -1884.277,-815.99166 0,-17.05844"
         style="fill:none;stroke:#7f7f7f;stroke-width:1.69971192;stroke-linecap:butt;stroke-linejoin:miter;stroke-miterlimit:4;stroke-opacity:1;stroke-dasharray:none"
         inkscape:export-filename="/home/joro/linux/joro/hamali/images/varianti_site_stranitsiv2.jpg"
         inkscape:export-xdpi="89.994392"
         inkscape:export-ydpi="89.994392" />
      <path
         inkscape:connector-curvature="0"
         style="fill:none;stroke:#7f7f7f;stroke-width:1.69971192;stroke-linecap:butt;stroke-linejoin:miter;stroke-miterlimit:4;stroke-opacity:1;stroke-dasharray:none"
         d="m -1848.8306,-898.73695 17.4139,0"
         id="path5345"
         inkscape:export-filename="/home/joro/linux/joro/hamali/images/varianti_site_stranitsiv2.jpg"
         inkscape:export-xdpi="89.994392"
         inkscape:export-ydpi="89.994392" />
    </g>
  </g>
</svg>
